<svg version="1.1" viewBox="0.0 0.0 571.8897637795276 165.45144356955382" fill="none" stroke="none" stroke-linecap="square" stroke-miterlimit="10" xmlns:xlink="http://www.w3.org/1999/xlink" xmlns="http://www.w3.org/2000/svg"><clipPath id="p.0"><path d="m0 0l571.8898 0l0 165.45145l-571.8898 0l0 -165.45145z" clip-rule="nonzero"/></clipPath><g clip-path="url(#p.0)"><path fill="#000000" fill-opacity="0.0" d="m0 0l571.8898 0l0 165.45145l-571.8898 0z" fill-rule="evenodd"/><path fill="#000000" fill-opacity="0.0" d="m327.5971 50.0l-259.46457 0" fill-rule="evenodd"/><path stroke="#999999" stroke-width="16.0" stroke-linejoin="round" stroke-linecap="butt" d="m327.5971 50.0l-259.46457 0" fill-rule="evenodd"/><path fill="#999999" fill-opacity="0.7255" d="m69.45538 50.0l0 0c0 19.16037 -15.532551 34.692917 -34.692917 34.692917l0 0c-9.201132 0 -18.02541 -3.655136 -24.531593 -10.161324c-6.5061836 -6.50618 -10.16132 -15.33046 -10.16132 -24.531593l0 0c0 -19.160366 15.532547 -34.692913 34.692913 -34.692913l0 0c19.160366 0 34.692917 15.532547 34.692917 34.692913z" fill-rule="evenodd"/><path fill="#ffffff" fill-opacity="0.8512" d="m54.589237 50.0l0 0c0 10.950024 -8.876747 19.826775 -19.82677 19.826775l0 0c-5.2583866 0 -10.301403 -2.08889 -14.019644 -5.807129c-3.7182407 -3.7182426 -5.807127 -8.761257 -5.807127 -14.019646l0 0c0 -10.950024 8.876747 -19.82677 19.82677 -19.82677l0 0c10.950024 0 19.82677 8.876747 19.82677 19.82677z" fill-rule="evenodd"/><path fill="#000000" fill-opacity="0.0" d="m388.3937 162.6693l-67.212616 -116.37796" fill-rule="evenodd"/><path stroke="#999999" stroke-width="16.0" stroke-linejoin="round" stroke-linecap="butt" d="m388.3937 162.6693l-67.212616 -116.37796" fill-rule="evenodd"/></g></svg>